# xmcd CD database file
#
# Track frame offsets:
#	150
#	19703
#	42526
#
# Disc length: 967 seconds
#
# Revision: 0
# Processed by: cddbd v1.5.1PL0 Copyright (c) Steve Scherf et al.
# Submitted via: CDex 1.51
#
DISCID=1e03c503
DTITLE=Cosihikari/Underground. - monoamineoxidase - HB
DYEAR=1900
DGENRE=未分類 (日本)
TTITLE0=渚の距離
TTITLE1="R" - elle de fait le ciel de vol -
TTITLE2=fff
EXTD=
EXTT0=
EXTT1=
EXTT2=
PLAYORDER=
